<?xml version="1.0" encoding="UTF-8"?>
<?xml-stylesheet href="https://cdnjs.cloudflare.com/ajax/libs/font-awesome/6.6.0/css/all.min.css" type="text/css"?>
<svg aria-roledescription="er" role="graphics-document document" style="overflow: hidden; max-width: 100%;" xmlns="http://www.w3.org/2000/svg" width="100%" id="graph-div" height="100%" xmlns:xlink="http://www.w3.org/1999/xlink" xmlns:ev="http://www.w3.org/2001/xml-events"><defs><marker orient="auto" markerHeight="240" markerWidth="190" refY="7" refX="0" id="MD_PARENT_START"><path d="M 18,7 L9,13 L1,7 L9,1 Z"></path></marker><style id="svg-pan-zoom-controls-styles" type="text/css">.svg-pan-zoom-control { cursor: pointer; fill: black; fill-opacity: 0.333; } .svg-pan-zoom-control:hover { fill-opacity: 0.8; } .svg-pan-zoom-control-background { fill: white; fill-opacity: 0.5; } .svg-pan-zoom-control-background { fill-opacity: 0.8; }</style></defs><defs><marker orient="auto" markerHeight="28" markerWidth="20" refY="7" refX="19" id="MD_PARENT_END"><path d="M 18,7 L9,13 L1,7 L9,1 Z"></path></marker></defs><defs><marker orient="auto" markerHeight="18" markerWidth="18" refY="9" refX="0" id="ONLY_ONE_START"><path d="M9,0 L9,18 M15,0 L15,18" fill="none" stroke="gray"></path></marker></defs><defs><marker orient="auto" markerHeight="18" markerWidth="18" refY="9" refX="18" id="ONLY_ONE_END"><path d="M3,0 L3,18 M9,0 L9,18" fill="none" stroke="gray"></path></marker></defs><defs><marker orient="auto" markerHeight="18" markerWidth="30" refY="9" refX="0" id="ZERO_OR_ONE_START"><circle r="6" cy="9" cx="21" fill="white" stroke="gray"></circle><path d="M9,0 L9,18" fill="none" stroke="gray"></path></marker></defs><defs><marker orient="auto" markerHeight="18" markerWidth="30" refY="9" refX="30" id="ZERO_OR_ONE_END"><circle r="6" cy="9" cx="9" fill="white" stroke="gray"></circle><path d="M21,0 L21,18" fill="none" stroke="gray"></path></marker></defs><defs><marker orient="auto" markerHeight="36" markerWidth="45" refY="18" refX="18" id="ONE_OR_MORE_START"><path d="M0,18 Q 18,0 36,18 Q 18,36 0,18 M42,9 L42,27" fill="none" stroke="gray"></path></marker></defs><defs><marker orient="auto" markerHeight="36" markerWidth="45" refY="18" refX="27" id="ONE_OR_MORE_END"><path d="M3,9 L3,27 M9,18 Q27,0 45,18 Q27,36 9,18" fill="none" stroke="gray"></path></marker></defs><defs><marker orient="auto" markerHeight="36" markerWidth="57" refY="18" refX="18" id="ZERO_OR_MORE_START"><circle r="6" cy="18" cx="48" fill="white" stroke="gray"></circle><path d="M0,18 Q18,0 36,18 Q18,36 0,18" fill="none" stroke="gray"></path></marker></defs><defs><marker orient="auto" markerHeight="36" markerWidth="57" refY="18" refX="39" id="ZERO_OR_MORE_END"><circle r="6" cy="18" cx="9" fill="white" stroke="gray"></circle><path d="M21,18 Q39,0 57,18 Q39,36 21,18" fill="none" stroke="gray"></path></marker></defs><g id="viewport-20241130022111636" class="svg-pan-zoom_viewport" transform="matrix(0.3630439463992151,0,0,0.3630439463992151,165.652848164516,-4.311658464048577)" style="transform: matrix(0.363044, 0, 0, 0.363044, 165.653, -4.31166);"><style>#graph-div{font-family:"trebuchet ms",verdana,arial,sans-serif;font-size:16px;fill:#333;}#graph-div .error-icon{fill:#552222;}#graph-div .error-text{fill:#552222;stroke:#552222;}#graph-div .edge-thickness-normal{stroke-width:1px;}#graph-div .edge-thickness-thick{stroke-width:3.5px;}#graph-div .edge-pattern-solid{stroke-dasharray:0;}#graph-div .edge-thickness-invisible{stroke-width:0;fill:none;}#graph-div .edge-pattern-dashed{stroke-dasharray:3;}#graph-div .edge-pattern-dotted{stroke-dasharray:2;}#graph-div .marker{fill:#333333;stroke:#333333;}#graph-div .marker.cross{stroke:#333333;}#graph-div svg{font-family:"trebuchet ms",verdana,arial,sans-serif;font-size:16px;}#graph-div p{margin:0;}#graph-div .entityBox{fill:#ECECFF;stroke:#9370DB;}#graph-div .attributeBoxOdd{fill:#ffffff;stroke:#9370DB;}#graph-div .attributeBoxEven{fill:#f2f2f2;stroke:#9370DB;}#graph-div .relationshipLabelBox{fill:hsl(80, 100%, 96.2745098039%);opacity:0.7;background-color:hsl(80, 100%, 96.2745098039%);}#graph-div .relationshipLabelBox rect{opacity:0.5;}#graph-div .relationshipLine{stroke:#333333;}#graph-div .entityTitleText{text-anchor:middle;font-size:18px;fill:#333;}#graph-div #MD_PARENT_START{fill:#f5f5f5!important;stroke:#333333!important;stroke-width:1;}#graph-div #MD_PARENT_END{fill:#f5f5f5!important;stroke:#333333!important;stroke-width:1;}#graph-div :root{--mermaid-font-family:"trebuchet ms",verdana,arial,sans-serif;}</style><g></g><path style="stroke: gray; fill: none;" marker-start="url(#ONLY_ONE_START)" marker-end="url(#ZERO_OR_ONE_END)" d="M666.316,236L666.316,244.333C666.316,252.667,666.316,269.333,666.316,286C666.316,302.667,666.316,319.333,666.316,327.667L666.316,336" class="er relationshipLine"></path><path style="stroke: gray; fill: none;" marker-start="url(#ONE_OR_MORE_START)" marker-end="url(#ONE_OR_MORE_END)" d="M666.316,424L666.316,432.333C666.316,440.667,666.316,457.333,666.316,474C666.316,490.667,666.316,507.333,666.316,515.667L666.316,524" class="er relationshipLine"></path><path style="stroke: gray; fill: none;" marker-start="url(#ONLY_ONE_START)" marker-end="url(#ZERO_OR_ONE_END)" d="M616.316,563.815L517.502,576.623C418.688,589.432,221.059,615.049,122.245,654.191C23.431,693.333,23.431,746,23.431,798.667C23.431,851.333,23.431,904,23.431,947.778C23.431,991.556,23.431,1026.444,23.431,1061.333C23.431,1096.222,23.431,1131.111,27.044,1156.889C30.657,1182.667,37.882,1199.333,41.495,1207.667L45.108,1216" class="er relationshipLine"></path><path style="stroke: gray; fill: none;" marker-start="url(#ONLY_ONE_START)" marker-end="url(#ZERO_OR_ONE_END)" d="M633.09,590.667L624.784,599C616.477,607.333,599.864,624,591.558,640.667C583.252,657.333,583.252,674,583.252,682.333L583.252,690.667" class="er relationshipLine"></path><path style="stroke: gray; fill: none;" marker-start="url(#ONLY_ONE_START)" marker-end="url(#ZERO_OR_ONE_END)" d="M697.018,590.667L704.694,599C712.369,607.333,727.721,624,735.396,658.667C743.072,693.333,743.072,746,743.072,798.667C743.072,851.333,743.072,904,751.949,942.222C760.827,980.444,778.581,1004.222,787.459,1016.111L796.336,1028" class="er relationshipLine"></path><path style="stroke: gray; fill: none;" marker-start="url(#ONLY_ONE_START)" marker-end="url(#ZERO_OR_ONE_END)" d="M716.316,575.708L745.775,586.535C775.234,597.361,834.153,619.014,863.612,650.618C893.072,682.222,893.072,723.778,893.072,744.556L893.072,765.333" class="er relationshipLine"></path><path style="stroke: gray; fill: none;" marker-start="url(#ONLY_ONE_START)" marker-end="url(#ZERO_OR_ONE_END)" d="M173.431,821.333L173.431,843.889C173.431,866.444,173.431,911.556,197.38,946.644C221.329,981.733,269.226,1006.799,293.175,1019.332L317.123,1031.865" class="er relationshipLine"></path><path style="stroke: gray; fill: none;" marker-start="url(#ONLY_ONE_START)" marker-end="url(#ZERO_OR_ONE_END)" d="M373.431,821.333L373.431,843.889C373.431,866.444,373.431,911.556,373.431,942.444C373.431,973.333,373.431,990,373.431,998.333L373.431,1006.667" class="er relationshipLine"></path><path style="stroke: gray; fill: none;" marker-start="url(#ONLY_ONE_START)" marker-end="url(#ZERO_OR_ONE_END)" d="M317.123,1087.899L289.534,1100.916C261.944,1113.933,206.765,1139.966,173.528,1161.317C140.291,1182.667,128.998,1199.333,123.351,1207.667L117.704,1216" class="er relationshipLine"></path><path style="stroke: gray; fill: none;" marker-start="url(#ONLY_ONE_START)" marker-end="url(#ZERO_OR_ONE_END)" d="M429.739,1085.918L460.31,1099.265C490.88,1112.612,552.021,1139.306,601.321,1166.32C650.622,1193.333,688.082,1220.667,706.812,1234.333L725.543,1248" class="er relationshipLine"></path><path style="stroke: gray; fill: none;" marker-start="url(#ONLY_ONE_START)" marker-end="url(#ZERO_OR_ONE_END)" d="M821.226,1094.667L821.226,1106.556C821.226,1118.444,821.226,1142.222,815.301,1167.778C809.376,1193.333,797.526,1220.667,791.602,1234.333L785.677,1248" class="er relationshipLine"></path><path style="stroke: gray; fill: none;" marker-start="url(#ONLY_ONE_START)" marker-end="url(#ZERO_OR_ONE_END)" d="M893.072,832L893.072,852.778C893.072,873.556,893.072,915.111,884.911,947.778C876.75,980.444,860.428,1004.222,852.268,1016.111L844.107,1028" class="er relationshipLine"></path><path style="stroke: gray; fill: none;" marker-start="url(#ONLY_ONE_START)" marker-end="url(#ZERO_OR_ONE_END)" d="M583.252,906.667L583.252,915C583.252,923.333,583.252,940,557.666,961.096C532.081,982.193,480.91,1007.719,455.325,1020.482L429.739,1033.245" class="er relationshipLine"></path><g transform="translate(588.5777740478516,20 )" id="entity-User-818c511a-4a32-5484-ba70-875d765a9175"><rect height="216.0000057220459" width="155.4758358001709" y="0" x="0" class="er entityBox"></rect><text transform="translate(77.73791790008545,12)" style="dominant-baseline: middle; text-anchor: middle; font-size: 12px;" y="0" x="0" id="text-entity-User-818c511a-4a32-5484-ba70-875d765a9175" class="er entityLabel">User</text><rect height="21.33333396911621" width="36.71541404724121" y="24" x="0" class="er attributeBoxOdd"></rect><text transform="translate(5,34.666666984558105)" style="dominant-baseline: middle; font-size: 10.2px;" y="0" x="0" id="text-entity-User-818c511a-4a32-5484-ba70-875d765a9175-attr-1-type" class="er entityLabel">String</text><rect height="21.33333396911621" width="118.76042175292969" y="24" x="36.71541404724121" class="er attributeBoxOdd"></rect><text transform="translate(41.71541404724121,34.666666984558105)" style="dominant-baseline: middle; font-size: 10.2px;" y="0" x="0" id="text-entity-User-818c511a-4a32-5484-ba70-875d765a9175-attr-1-name" class="er entityLabel">email</text><rect height="21.33333396911621" width="36.71541404724121" y="45.33333396911621" x="0" class="er attributeBoxEven"></rect><text transform="translate(5,56.000000953674316)" style="dominant-baseline: middle; font-size: 10.2px;" y="0" x="0" id="text-entity-User-818c511a-4a32-5484-ba70-875d765a9175-attr-2-type" class="er entityLabel">String</text><rect height="21.33333396911621" width="118.76042175292969" y="45.33333396911621" x="36.71541404724121" class="er attributeBoxEven"></rect><text transform="translate(41.71541404724121,56.000000953674316)" style="dominant-baseline: middle; font-size: 10.2px;" y="0" x="0" id="text-entity-User-818c511a-4a32-5484-ba70-875d765a9175-attr-2-name" class="er entityLabel">password</text><rect height="21.33333396911621" width="36.71541404724121" y="66.66666793823242" x="0" class="er attributeBoxOdd"></rect><text transform="translate(5,77.33333492279053)" style="dominant-baseline: middle; font-size: 10.2px;" y="0" x="0" id="text-entity-User-818c511a-4a32-5484-ba70-875d765a9175-attr-3-type" class="er entityLabel">String</text><rect height="21.33333396911621" width="118.76042175292969" y="66.66666793823242" x="36.71541404724121" class="er attributeBoxOdd"></rect><text transform="translate(41.71541404724121,77.33333492279053)" style="dominant-baseline: middle; font-size: 10.2px;" y="0" x="0" id="text-entity-User-818c511a-4a32-5484-ba70-875d765a9175-attr-3-name" class="er entityLabel">name</text><rect height="21.33333396911621" width="36.71541404724121" y="88.00000190734863" x="0" class="er attributeBoxEven"></rect><text transform="translate(5,98.66666889190674)" style="dominant-baseline: middle; font-size: 10.2px;" y="0" x="0" id="text-entity-User-818c511a-4a32-5484-ba70-875d765a9175-attr-4-type" class="er entityLabel">String</text><rect height="21.33333396911621" width="118.76042175292969" y="88.00000190734863" x="36.71541404724121" class="er attributeBoxEven"></rect><text transform="translate(41.71541404724121,98.66666889190674)" style="dominant-baseline: middle; font-size: 10.2px;" y="0" x="0" id="text-entity-User-818c511a-4a32-5484-ba70-875d765a9175-attr-4-name" class="er entityLabel">language</text><rect height="21.33333396911621" width="36.71541404724121" y="109.33333587646484" x="0" class="er attributeBoxOdd"></rect><text transform="translate(5,120.00000286102295)" style="dominant-baseline: middle; font-size: 10.2px;" y="0" x="0" id="text-entity-User-818c511a-4a32-5484-ba70-875d765a9175-attr-5-type" class="er entityLabel">String</text><rect height="21.33333396911621" width="118.76042175292969" y="109.33333587646484" x="36.71541404724121" class="er attributeBoxOdd"></rect><text transform="translate(41.71541404724121,120.00000286102295)" style="dominant-baseline: middle; font-size: 10.2px;" y="0" x="0" id="text-entity-User-818c511a-4a32-5484-ba70-875d765a9175-attr-5-name" class="er entityLabel">timezone</text><rect height="21.33333396911621" width="36.71541404724121" y="130.66666984558105" x="0" class="er attributeBoxEven"></rect><text transform="translate(5,141.33333683013916)" style="dominant-baseline: middle; font-size: 10.2px;" y="0" x="0" id="text-entity-User-818c511a-4a32-5484-ba70-875d765a9175-attr-6-type" class="er entityLabel">String</text><rect height="21.33333396911621" width="118.76042175292969" y="130.66666984558105" x="36.71541404724121" class="er attributeBoxEven"></rect><text transform="translate(41.71541404724121,141.33333683013916)" style="dominant-baseline: middle; font-size: 10.2px;" y="0" x="0" id="text-entity-User-818c511a-4a32-5484-ba70-875d765a9175-attr-6-name" class="er entityLabel">device</text><rect height="21.33333396911621" width="36.71541404724121" y="152.00000381469727" x="0" class="er attributeBoxOdd"></rect><text transform="translate(5,162.66667079925537)" style="dominant-baseline: middle; font-size: 10.2px;" y="0" x="0" id="text-entity-User-818c511a-4a32-5484-ba70-875d765a9175-attr-7-type" class="er entityLabel">String</text><rect height="21.33333396911621" width="118.76042175292969" y="152.00000381469727" x="36.71541404724121" class="er attributeBoxOdd"></rect><text transform="translate(41.71541404724121,162.66667079925537)" style="dominant-baseline: middle; font-size: 10.2px;" y="0" x="0" id="text-entity-User-818c511a-4a32-5484-ba70-875d765a9175-attr-7-name" class="er entityLabel">image</text><rect height="21.33333396911621" width="36.71541404724121" y="173.33333778381348" x="0" class="er attributeBoxEven"></rect><text transform="translate(5,184.00000476837158)" style="dominant-baseline: middle; font-size: 10.2px;" y="0" x="0" id="text-entity-User-818c511a-4a32-5484-ba70-875d765a9175-attr-8-type" class="er entityLabel">Date</text><rect height="21.33333396911621" width="118.76042175292969" y="173.33333778381348" x="36.71541404724121" class="er attributeBoxEven"></rect><text transform="translate(41.71541404724121,184.00000476837158)" style="dominant-baseline: middle; font-size: 10.2px;" y="0" x="0" id="text-entity-User-818c511a-4a32-5484-ba70-875d765a9175-attr-8-name" class="er entityLabel">verificationCodeExpires</text><rect height="21.33333396911621" width="36.71541404724121" y="194.6666717529297" x="0" class="er attributeBoxOdd"></rect><text transform="translate(5,205.3333387374878)" style="dominant-baseline: middle; font-size: 10.2px;" y="0" x="0" id="text-entity-User-818c511a-4a32-5484-ba70-875d765a9175-attr-9-type" class="er entityLabel">String</text><rect height="21.33333396911621" width="118.76042175292969" y="194.6666717529297" x="36.71541404724121" class="er attributeBoxOdd"></rect><text transform="translate(41.71541404724121,205.3333387374878)" style="dominant-baseline: middle; font-size: 10.2px;" y="0" x="0" id="text-entity-User-818c511a-4a32-5484-ba70-875d765a9175-attr-9-name" class="er entityLabel">verificationCode</text></g><g transform="translate(616.3156967163086,336 )" id="entity-GroupUser-81de38f4-a497-5a63-9c46-4e598aba95cf"><rect height="88.00000190734863" width="100" y="0" x="0" class="er entityBox"></rect><text transform="translate(50,12)" style="dominant-baseline: middle; text-anchor: middle; font-size: 12px;" y="0" x="0" id="text-entity-GroupUser-81de38f4-a497-5a63-9c46-4e598aba95cf" class="er entityLabel">GroupUser</text><rect height="21.33333396911621" width="50.54955577850342" y="24" x="0" class="er attributeBoxOdd"></rect><text transform="translate(5,34.666666984558105)" style="dominant-baseline: middle; font-size: 10.2px;" y="0" x="0" id="text-entity-GroupUser-81de38f4-a497-5a63-9c46-4e598aba95cf-attr-1-type" class="er entityLabel">String</text><rect height="21.33333396911621" width="49.45044422149658" y="24" x="50.54955577850342" class="er attributeBoxOdd"></rect><text transform="translate(55.54955577850342,34.666666984558105)" style="dominant-baseline: middle; font-size: 10.2px;" y="0" x="0" id="text-entity-GroupUser-81de38f4-a497-5a63-9c46-4e598aba95cf-attr-1-name" class="er entityLabel">name</text><rect height="21.33333396911621" width="50.54955577850342" y="45.33333396911621" x="0" class="er attributeBoxEven"></rect><text transform="translate(5,56.000000953674316)" style="dominant-baseline: middle; font-size: 10.2px;" y="0" x="0" id="text-entity-GroupUser-81de38f4-a497-5a63-9c46-4e598aba95cf-attr-2-type" class="er entityLabel">String</text><rect height="21.33333396911621" width="49.45044422149658" y="45.33333396911621" x="50.54955577850342" class="er attributeBoxEven"></rect><text transform="translate(55.54955577850342,56.000000953674316)" style="dominant-baseline: middle; font-size: 10.2px;" y="0" x="0" id="text-entity-GroupUser-81de38f4-a497-5a63-9c46-4e598aba95cf-attr-2-name" class="er entityLabel">email</text><rect height="21.33333396911621" width="50.54955577850342" y="66.66666793823242" x="0" class="er attributeBoxOdd"></rect><text transform="translate(5,77.33333492279053)" style="dominant-baseline: middle; font-size: 10.2px;" y="0" x="0" id="text-entity-GroupUser-81de38f4-a497-5a63-9c46-4e598aba95cf-attr-3-type" class="er entityLabel">String</text><rect height="21.33333396911621" width="49.45044422149658" y="66.66666793823242" x="50.54955577850342" class="er attributeBoxOdd"></rect><text transform="translate(55.54955577850342,77.33333492279053)" style="dominant-baseline: middle; font-size: 10.2px;" y="0" x="0" id="text-entity-GroupUser-81de38f4-a497-5a63-9c46-4e598aba95cf-attr-3-name" class="er entityLabel">role</text></g><g transform="translate(616.3156967163086,524 )" id="entity-Group-c50154b9-939c-5428-9ef3-b05ac51a8a04"><rect height="66.66666793823242" width="100" y="0" x="0" class="er entityBox"></rect><text transform="translate(50,12)" style="dominant-baseline: middle; text-anchor: middle; font-size: 12px;" y="0" x="0" id="text-entity-Group-c50154b9-939c-5428-9ef3-b05ac51a8a04" class="er entityLabel">Group</text><rect height="21.33333396911621" width="49.43770885467529" y="24" x="0" class="er attributeBoxOdd"></rect><text transform="translate(5,34.666666984558105)" style="dominant-baseline: middle; font-size: 10.2px;" y="0" x="0" id="text-entity-Group-c50154b9-939c-5428-9ef3-b05ac51a8a04-attr-1-type" class="er entityLabel">String</text><rect height="21.33333396911621" width="50.56229114532471" y="24" x="49.43770885467529" class="er attributeBoxOdd"></rect><text transform="translate(54.43770885467529,34.666666984558105)" style="dominant-baseline: middle; font-size: 10.2px;" y="0" x="0" id="text-entity-Group-c50154b9-939c-5428-9ef3-b05ac51a8a04-attr-1-name" class="er entityLabel">name</text><rect height="21.33333396911621" width="49.43770885467529" y="45.33333396911621" x="0" class="er attributeBoxEven"></rect><text transform="translate(5,56.000000953674316)" style="dominant-baseline: middle; font-size: 10.2px;" y="0" x="0" id="text-entity-Group-c50154b9-939c-5428-9ef3-b05ac51a8a04-attr-2-type" class="er entityLabel">String</text><rect height="21.33333396911621" width="50.56229114532471" y="45.33333396911621" x="49.43770885467529" class="er attributeBoxEven"></rect><text transform="translate(54.43770885467529,56.000000953674316)" style="dominant-baseline: middle; font-size: 10.2px;" y="0" x="0" id="text-entity-Group-c50154b9-939c-5428-9ef3-b05ac51a8a04-attr-2-name" class="er entityLabel">image</text></g><g transform="translate(123.43137741088867,775.9999980926514 )" id="entity-Category-1a07ff93-e37c-5c4b-81d2-6cefab6d4eed"><rect height="45.33333396911621" width="100" y="0" x="0" class="er entityBox"></rect><text transform="translate(50,12)" style="dominant-baseline: middle; text-anchor: middle; font-size: 12px;" y="0" x="0" id="text-entity-Category-1a07ff93-e37c-5c4b-81d2-6cefab6d4eed" class="er entityLabel">Category</text><rect height="21.33333396911621" width="50.66458606719971" y="24" x="0" class="er attributeBoxOdd"></rect><text transform="translate(5,34.666666984558105)" style="dominant-baseline: middle; font-size: 10.2px;" y="0" x="0" id="text-entity-Category-1a07ff93-e37c-5c4b-81d2-6cefab6d4eed-attr-1-type" class="er entityLabel">String</text><rect height="21.33333396911621" width="49.33541393280029" y="24" x="50.66458606719971" class="er attributeBoxOdd"></rect><text transform="translate(55.66458606719971,34.666666984558105)" style="dominant-baseline: middle; font-size: 10.2px;" y="0" x="0" id="text-entity-Category-1a07ff93-e37c-5c4b-81d2-6cefab6d4eed-attr-1-name" class="er entityLabel">name</text></g><g transform="translate(323.4313774108887,775.9999980926514 )" id="entity-Unit-c57ac1ea-0a24-509a-a80e-23f8c03ca739"><rect height="45.33333396911621" width="100" y="0" x="0" class="er entityBox"></rect><text transform="translate(50,12)" style="dominant-baseline: middle; text-anchor: middle; font-size: 12px;" y="0" x="0" id="text-entity-Unit-c57ac1ea-0a24-509a-a80e-23f8c03ca739" class="er entityLabel">Unit</text><rect height="21.33333396911621" width="50.66458606719971" y="24" x="0" class="er attributeBoxOdd"></rect><text transform="translate(5,34.666666984558105)" style="dominant-baseline: middle; font-size: 10.2px;" y="0" x="0" id="text-entity-Unit-c57ac1ea-0a24-509a-a80e-23f8c03ca739-attr-1-type" class="er entityLabel">String</text><rect height="21.33333396911621" width="49.33541393280029" y="24" x="50.66458606719971" class="er attributeBoxOdd"></rect><text transform="translate(55.66458606719971,34.666666984558105)" style="dominant-baseline: middle; font-size: 10.2px;" y="0" x="0" id="text-entity-Unit-c57ac1ea-0a24-509a-a80e-23f8c03ca739-attr-1-name" class="er entityLabel">name</text></g><g transform="translate(317.1233215332031,1006.6666641235352 )" id="entity-Food-3723180b-0a8a-546d-bb94-8c4a5baedd79"><rect height="109.33333587646484" width="112.61610984802246" y="0" x="0" class="er entityBox"></rect><text transform="translate(56.30805492401123,12)" style="dominant-baseline: middle; text-anchor: middle; font-size: 12px;" y="0" x="0" id="text-entity-Food-3723180b-0a8a-546d-bb94-8c4a5baedd79" class="er entityLabel">Food</text><rect height="21.33333396911621" width="36.71541404724121" y="24" x="0" class="er attributeBoxOdd"></rect><text transform="translate(5,34.666666984558105)" style="dominant-baseline: middle; font-size: 10.2px;" y="0" x="0" id="text-entity-Food-3723180b-0a8a-546d-bb94-8c4a5baedd79-attr-1-type" class="er entityLabel">String</text><rect height="21.33333396911621" width="75.90069580078125" y="24" x="36.71541404724121" class="er attributeBoxOdd"></rect><text transform="translate(41.71541404724121,34.666666984558105)" style="dominant-baseline: middle; font-size: 10.2px;" y="0" x="0" id="text-entity-Food-3723180b-0a8a-546d-bb94-8c4a5baedd79-attr-1-name" class="er entityLabel">name</text><rect height="21.33333396911621" width="36.71541404724121" y="45.33333396911621" x="0" class="er attributeBoxEven"></rect><text transform="translate(5,56.000000953674316)" style="dominant-baseline: middle; font-size: 10.2px;" y="0" x="0" id="text-entity-Food-3723180b-0a8a-546d-bb94-8c4a5baedd79-attr-2-type" class="er entityLabel">String</text><rect height="21.33333396911621" width="75.90069580078125" y="45.33333396911621" x="36.71541404724121" class="er attributeBoxEven"></rect><text transform="translate(41.71541404724121,56.000000953674316)" style="dominant-baseline: middle; font-size: 10.2px;" y="0" x="0" id="text-entity-Food-3723180b-0a8a-546d-bb94-8c4a5baedd79-attr-2-name" class="er entityLabel">categoryName</text><rect height="21.33333396911621" width="36.71541404724121" y="66.66666793823242" x="0" class="er attributeBoxOdd"></rect><text transform="translate(5,77.33333492279053)" style="dominant-baseline: middle; font-size: 10.2px;" y="0" x="0" id="text-entity-Food-3723180b-0a8a-546d-bb94-8c4a5baedd79-attr-3-type" class="er entityLabel">String</text><rect height="21.33333396911621" width="75.90069580078125" y="66.66666793823242" x="36.71541404724121" class="er attributeBoxOdd"></rect><text transform="translate(41.71541404724121,77.33333492279053)" style="dominant-baseline: middle; font-size: 10.2px;" y="0" x="0" id="text-entity-Food-3723180b-0a8a-546d-bb94-8c4a5baedd79-attr-3-name" class="er entityLabel">unitName</text><rect height="21.33333396911621" width="36.71541404724121" y="88.00000190734863" x="0" class="er attributeBoxEven"></rect><text transform="translate(5,98.66666889190674)" style="dominant-baseline: middle; font-size: 10.2px;" y="0" x="0" id="text-entity-Food-3723180b-0a8a-546d-bb94-8c4a5baedd79-attr-4-type" class="er entityLabel">String</text><rect height="21.33333396911621" width="75.90069580078125" y="88.00000190734863" x="36.71541404724121" class="er attributeBoxEven"></rect><text transform="translate(41.71541404724121,98.66666889190674)" style="dominant-baseline: middle; font-size: 10.2px;" y="0" x="0" id="text-entity-Food-3723180b-0a8a-546d-bb94-8c4a5baedd79-attr-4-name" class="er entityLabel">image</text></g><g transform="translate(20,1216 )" id="entity-Item-8a1f935b-4333-55f4-bdb2-98b6af61c805"><rect height="130.66666984558105" width="106.86275482177734" y="0" x="0" class="er entityBox"></rect><text transform="translate(53.43137741088867,12)" style="dominant-baseline: middle; text-anchor: middle; font-size: 12px;" y="0" x="0" id="text-entity-Item-8a1f935b-4333-55f4-bdb2-98b6af61c805" class="er entityLabel">Item</text><rect height="21.33333396911621" width="46.4411735534668" y="24" x="0" class="er attributeBoxOdd"></rect><text transform="translate(5,34.666666984558105)" style="dominant-baseline: middle; font-size: 10.2px;" y="0" x="0" id="text-entity-Item-8a1f935b-4333-55f4-bdb2-98b6af61c805-attr-1-type" class="er entityLabel">String</text><rect height="21.33333396911621" width="60.42158126831055" y="24" x="46.4411735534668" class="er attributeBoxOdd"></rect><text transform="translate(51.4411735534668,34.666666984558105)" style="dominant-baseline: middle; font-size: 10.2px;" y="0" x="0" id="text-entity-Item-8a1f935b-4333-55f4-bdb2-98b6af61c805-attr-1-name" class="er entityLabel">foodName</text><rect height="21.33333396911621" width="46.4411735534668" y="45.33333396911621" x="0" class="er attributeBoxEven"></rect><text transform="translate(5,56.000000953674316)" style="dominant-baseline: middle; font-size: 10.2px;" y="0" x="0" id="text-entity-Item-8a1f935b-4333-55f4-bdb2-98b6af61c805-attr-2-type" class="er entityLabel">Date</text><rect height="21.33333396911621" width="60.42158126831055" y="45.33333396911621" x="46.4411735534668" class="er attributeBoxEven"></rect><text transform="translate(51.4411735534668,56.000000953674316)" style="dominant-baseline: middle; font-size: 10.2px;" y="0" x="0" id="text-entity-Item-8a1f935b-4333-55f4-bdb2-98b6af61c805-attr-2-name" class="er entityLabel">expireDate</text><rect height="21.33333396911621" width="46.4411735534668" y="66.66666793823242" x="0" class="er attributeBoxOdd"></rect><text transform="translate(5,77.33333492279053)" style="dominant-baseline: middle; font-size: 10.2px;" y="0" x="0" id="text-entity-Item-8a1f935b-4333-55f4-bdb2-98b6af61c805-attr-3-type" class="er entityLabel">Number</text><rect height="21.33333396911621" width="60.42158126831055" y="66.66666793823242" x="46.4411735534668" class="er attributeBoxOdd"></rect><text transform="translate(51.4411735534668,77.33333492279053)" style="dominant-baseline: middle; font-size: 10.2px;" y="0" x="0" id="text-entity-Item-8a1f935b-4333-55f4-bdb2-98b6af61c805-attr-3-name" class="er entityLabel">amount</text><rect height="21.33333396911621" width="46.4411735534668" y="88.00000190734863" x="0" class="er attributeBoxEven"></rect><text transform="translate(5,98.66666889190674)" style="dominant-baseline: middle; font-size: 10.2px;" y="0" x="0" id="text-entity-Item-8a1f935b-4333-55f4-bdb2-98b6af61c805-attr-4-type" class="er entityLabel">String</text><rect height="21.33333396911621" width="60.42158126831055" y="88.00000190734863" x="46.4411735534668" class="er attributeBoxEven"></rect><text transform="translate(51.4411735534668,98.66666889190674)" style="dominant-baseline: middle; font-size: 10.2px;" y="0" x="0" id="text-entity-Item-8a1f935b-4333-55f4-bdb2-98b6af61c805-attr-4-name" class="er entityLabel">unitName</text><rect height="21.33333396911621" width="46.4411735534668" y="109.33333587646484" x="0" class="er attributeBoxOdd"></rect><text transform="translate(5,120.00000286102295)" style="dominant-baseline: middle; font-size: 10.2px;" y="0" x="0" id="text-entity-Item-8a1f935b-4333-55f4-bdb2-98b6af61c805-attr-5-type" class="er entityLabel">String</text><rect height="21.33333396911621" width="60.42158126831055" y="109.33333587646484" x="46.4411735534668" class="er attributeBoxOdd"></rect><text transform="translate(51.4411735534668,120.00000286102295)" style="dominant-baseline: middle; font-size: 10.2px;" y="0" x="0" id="text-entity-Item-8a1f935b-4333-55f4-bdb2-98b6af61c805-attr-5-name" class="er entityLabel">note</text></g><g transform="translate(523.4313774108887,690.6666641235352 )" id="entity-ListTask-fca94892-8329-5498-83b4-36f7ceb719dd"><rect height="216.0000057220459" width="119.6403923034668" y="0" x="0" class="er entityBox"></rect><text transform="translate(59.8201961517334,12)" style="dominant-baseline: middle; text-anchor: middle; font-size: 12px;" y="0" x="0" id="text-entity-ListTask-fca94892-8329-5498-83b4-36f7ceb719dd" class="er entityLabel">ListTask</text><rect height="21.33333396911621" width="46.4411735534668" y="24" x="0" class="er attributeBoxOdd"></rect><text transform="translate(5,34.666666984558105)" style="dominant-baseline: middle; font-size: 10.2px;" y="0" x="0" id="text-entity-ListTask-fca94892-8329-5498-83b4-36f7ceb719dd-attr-1-type" class="er entityLabel">String</text><rect height="21.33333396911621" width="73.19921875" y="24" x="46.4411735534668" class="er attributeBoxOdd"></rect><text transform="translate(51.4411735534668,34.666666984558105)" style="dominant-baseline: middle; font-size: 10.2px;" y="0" x="0" id="text-entity-ListTask-fca94892-8329-5498-83b4-36f7ceb719dd-attr-1-name" class="er entityLabel">name</text><rect height="21.33333396911621" width="46.4411735534668" y="45.33333396911621" x="0" class="er attributeBoxEven"></rect><text transform="translate(5,56.000000953674316)" style="dominant-baseline: middle; font-size: 10.2px;" y="0" x="0" id="text-entity-ListTask-fca94892-8329-5498-83b4-36f7ceb719dd-attr-2-type" class="er entityLabel">String</text><rect height="21.33333396911621" width="73.19921875" y="45.33333396911621" x="46.4411735534668" class="er attributeBoxEven"></rect><text transform="translate(51.4411735534668,56.000000953674316)" style="dominant-baseline: middle; font-size: 10.2px;" y="0" x="0" id="text-entity-ListTask-fca94892-8329-5498-83b4-36f7ceb719dd-attr-2-name" class="er entityLabel">memberEmail</text><rect height="21.33333396911621" width="46.4411735534668" y="66.66666793823242" x="0" class="er attributeBoxOdd"></rect><text transform="translate(5,77.33333492279053)" style="dominant-baseline: middle; font-size: 10.2px;" y="0" x="0" id="text-entity-ListTask-fca94892-8329-5498-83b4-36f7ceb719dd-attr-3-type" class="er entityLabel">String</text><rect height="21.33333396911621" width="73.19921875" y="66.66666793823242" x="46.4411735534668" class="er attributeBoxOdd"></rect><text transform="translate(51.4411735534668,77.33333492279053)" style="dominant-baseline: middle; font-size: 10.2px;" y="0" x="0" id="text-entity-ListTask-fca94892-8329-5498-83b4-36f7ceb719dd-attr-3-name" class="er entityLabel">note</text><rect height="21.33333396911621" width="46.4411735534668" y="88.00000190734863" x="0" class="er attributeBoxEven"></rect><text transform="translate(5,98.66666889190674)" style="dominant-baseline: middle; font-size: 10.2px;" y="0" x="0" id="text-entity-ListTask-fca94892-8329-5498-83b4-36f7ceb719dd-attr-4-type" class="er entityLabel">Date</text><rect height="21.33333396911621" width="73.19921875" y="88.00000190734863" x="46.4411735534668" class="er attributeBoxEven"></rect><text transform="translate(51.4411735534668,98.66666889190674)" style="dominant-baseline: middle; font-size: 10.2px;" y="0" x="0" id="text-entity-ListTask-fca94892-8329-5498-83b4-36f7ceb719dd-attr-4-name" class="er entityLabel">startDate</text><rect height="21.33333396911621" width="46.4411735534668" y="109.33333587646484" x="0" class="er attributeBoxOdd"></rect><text transform="translate(5,120.00000286102295)" style="dominant-baseline: middle; font-size: 10.2px;" y="0" x="0" id="text-entity-ListTask-fca94892-8329-5498-83b4-36f7ceb719dd-attr-5-type" class="er entityLabel">Date</text><rect height="21.33333396911621" width="73.19921875" y="109.33333587646484" x="46.4411735534668" class="er attributeBoxOdd"></rect><text transform="translate(51.4411735534668,120.00000286102295)" style="dominant-baseline: middle; font-size: 10.2px;" y="0" x="0" id="text-entity-ListTask-fca94892-8329-5498-83b4-36f7ceb719dd-attr-5-name" class="er entityLabel">endDate</text><rect height="21.33333396911621" width="46.4411735534668" y="130.66666984558105" x="0" class="er attributeBoxEven"></rect><text transform="translate(5,141.33333683013916)" style="dominant-baseline: middle; font-size: 10.2px;" y="0" x="0" id="text-entity-ListTask-fca94892-8329-5498-83b4-36f7ceb719dd-attr-6-type" class="er entityLabel">String</text><rect height="21.33333396911621" width="73.19921875" y="130.66666984558105" x="46.4411735534668" class="er attributeBoxEven"></rect><text transform="translate(51.4411735534668,141.33333683013916)" style="dominant-baseline: middle; font-size: 10.2px;" y="0" x="0" id="text-entity-ListTask-fca94892-8329-5498-83b4-36f7ceb719dd-attr-6-name" class="er entityLabel">foodName</text><rect height="21.33333396911621" width="46.4411735534668" y="152.00000381469727" x="0" class="er attributeBoxOdd"></rect><text transform="translate(5,162.66667079925537)" style="dominant-baseline: middle; font-size: 10.2px;" y="0" x="0" id="text-entity-ListTask-fca94892-8329-5498-83b4-36f7ceb719dd-attr-7-type" class="er entityLabel">Number</text><rect height="21.33333396911621" width="73.19921875" y="152.00000381469727" x="46.4411735534668" class="er attributeBoxOdd"></rect><text transform="translate(51.4411735534668,162.66667079925537)" style="dominant-baseline: middle; font-size: 10.2px;" y="0" x="0" id="text-entity-ListTask-fca94892-8329-5498-83b4-36f7ceb719dd-attr-7-name" class="er entityLabel">amount</text><rect height="21.33333396911621" width="46.4411735534668" y="173.33333778381348" x="0" class="er attributeBoxEven"></rect><text transform="translate(5,184.00000476837158)" style="dominant-baseline: middle; font-size: 10.2px;" y="0" x="0" id="text-entity-ListTask-fca94892-8329-5498-83b4-36f7ceb719dd-attr-8-type" class="er entityLabel">String</text><rect height="21.33333396911621" width="73.19921875" y="173.33333778381348" x="46.4411735534668" class="er attributeBoxEven"></rect><text transform="translate(51.4411735534668,184.00000476837158)" style="dominant-baseline: middle; font-size: 10.2px;" y="0" x="0" id="text-entity-ListTask-fca94892-8329-5498-83b4-36f7ceb719dd-attr-8-name" class="er entityLabel">unitName</text><rect height="21.33333396911621" width="46.4411735534668" y="194.6666717529297" x="0" class="er attributeBoxOdd"></rect><text transform="translate(5,205.3333387374878)" style="dominant-baseline: middle; font-size: 10.2px;" y="0" x="0" id="text-entity-ListTask-fca94892-8329-5498-83b4-36f7ceb719dd-attr-9-type" class="er entityLabel">Boolean</text><rect height="21.33333396911621" width="73.19921875" y="194.6666717529297" x="46.4411735534668" class="er attributeBoxOdd"></rect><text transform="translate(51.4411735534668,205.3333387374878)" style="dominant-baseline: middle; font-size: 10.2px;" y="0" x="0" id="text-entity-ListTask-fca94892-8329-5498-83b4-36f7ceb719dd-attr-9-name" class="er entityLabel">state</text></g><g transform="translate(719.650915145874,1248.0000038146973 )" id="entity-RecipeItem-25195ea7-17ba-57c4-a509-99802e4f996a"><rect height="66.66666793823242" width="103.14976119995117" y="0" x="0" class="er entityBox"></rect><text transform="translate(51.574880599975586,12)" style="dominant-baseline: middle; text-anchor: middle; font-size: 12px;" y="0" x="0" id="text-entity-RecipeItem-25195ea7-17ba-57c4-a509-99802e4f996a" class="er entityLabel">RecipeItem</text><rect height="21.33333396911621" width="46.4411735534668" y="24" x="0" class="er attributeBoxOdd"></rect><text transform="translate(5,34.666666984558105)" style="dominant-baseline: middle; font-size: 10.2px;" y="0" x="0" id="text-entity-RecipeItem-25195ea7-17ba-57c4-a509-99802e4f996a-attr-1-type" class="er entityLabel">String</text><rect height="21.33333396911621" width="56.708587646484375" y="24" x="46.4411735534668" class="er attributeBoxOdd"></rect><text transform="translate(51.4411735534668,34.666666984558105)" style="dominant-baseline: middle; font-size: 10.2px;" y="0" x="0" id="text-entity-RecipeItem-25195ea7-17ba-57c4-a509-99802e4f996a-attr-1-name" class="er entityLabel">foodName</text><rect height="21.33333396911621" width="46.4411735534668" y="45.33333396911621" x="0" class="er attributeBoxEven"></rect><text transform="translate(5,56.000000953674316)" style="dominant-baseline: middle; font-size: 10.2px;" y="0" x="0" id="text-entity-RecipeItem-25195ea7-17ba-57c4-a509-99802e4f996a-attr-2-type" class="er entityLabel">Number</text><rect height="21.33333396911621" width="56.708587646484375" y="45.33333396911621" x="46.4411735534668" class="er attributeBoxEven"></rect><text transform="translate(51.4411735534668,56.000000953674316)" style="dominant-baseline: middle; font-size: 10.2px;" y="0" x="0" id="text-entity-RecipeItem-25195ea7-17ba-57c4-a509-99802e4f996a-attr-2-name" class="er entityLabel">amount</text></g><g transform="translate(771.225793838501,1028 )" id="entity-Recipe-c5a555a1-f960-52db-b4ed-0bfa18575689"><rect height="66.66666793823242" width="100" y="0" x="0" class="er entityBox"></rect><text transform="translate(50,12)" style="dominant-baseline: middle; text-anchor: middle; font-size: 12px;" y="0" x="0" id="text-entity-Recipe-c5a555a1-f960-52db-b4ed-0bfa18575689" class="er entityLabel">Recipe</text><rect height="21.33333396911621" width="37.883748054504395" y="24" x="0" class="er attributeBoxOdd"></rect><text transform="translate(5,34.666666984558105)" style="dominant-baseline: middle; font-size: 10.2px;" y="0" x="0" id="text-entity-Recipe-c5a555a1-f960-52db-b4ed-0bfa18575689-attr-1-type" class="er entityLabel">String</text><rect height="21.33333396911621" width="62.116251945495605" y="24" x="37.883748054504395" class="er attributeBoxOdd"></rect><text transform="translate(42.883748054504395,34.666666984558105)" style="dominant-baseline: middle; font-size: 10.2px;" y="0" x="0" id="text-entity-Recipe-c5a555a1-f960-52db-b4ed-0bfa18575689-attr-1-name" class="er entityLabel">name</text><rect height="21.33333396911621" width="37.883748054504395" y="45.33333396911621" x="0" class="er attributeBoxEven"></rect><text transform="translate(5,56.000000953674316)" style="dominant-baseline: middle; font-size: 10.2px;" y="0" x="0" id="text-entity-Recipe-c5a555a1-f960-52db-b4ed-0bfa18575689-attr-2-type" class="er entityLabel">String</text><rect height="21.33333396911621" width="62.116251945495605" y="45.33333396911621" x="37.883748054504395" class="er attributeBoxEven"></rect><text transform="translate(42.883748054504395,56.000000953674316)" style="dominant-baseline: middle; font-size: 10.2px;" y="0" x="0" id="text-entity-Recipe-c5a555a1-f960-52db-b4ed-0bfa18575689-attr-2-name" class="er entityLabel">description</text></g><g transform="translate(843.0717658996582,765.3333320617676 )" id="entity-MealPlan-c083b3ea-8ee8-518d-a401-4f10487e2959"><rect height="66.66666793823242" width="100" y="0" x="0" class="er entityBox"></rect><text transform="translate(50,12)" style="dominant-baseline: middle; text-anchor: middle; font-size: 12px;" y="0" x="0" id="text-entity-MealPlan-c083b3ea-8ee8-518d-a401-4f10487e2959" class="er entityLabel">MealPlan</text><rect height="21.33333396911621" width="48.27055835723877" y="24" x="0" class="er attributeBoxOdd"></rect><text transform="translate(5,34.666666984558105)" style="dominant-baseline: middle; font-size: 10.2px;" y="0" x="0" id="text-entity-MealPlan-c083b3ea-8ee8-518d-a401-4f10487e2959-attr-1-type" class="er entityLabel">Date</text><rect height="21.33333396911621" width="51.72944164276123" y="24" x="48.27055835723877" class="er attributeBoxOdd"></rect><text transform="translate(53.27055835723877,34.666666984558105)" style="dominant-baseline: middle; font-size: 10.2px;" y="0" x="0" id="text-entity-MealPlan-c083b3ea-8ee8-518d-a401-4f10487e2959-attr-1-name" class="er entityLabel">date</text><rect height="21.33333396911621" width="48.27055835723877" y="45.33333396911621" x="0" class="er attributeBoxEven"></rect><text transform="translate(5,56.000000953674316)" style="dominant-baseline: middle; font-size: 10.2px;" y="0" x="0" id="text-entity-MealPlan-c083b3ea-8ee8-518d-a401-4f10487e2959-attr-2-type" class="er entityLabel">String</text><rect height="21.33333396911621" width="51.72944164276123" y="45.33333396911621" x="48.27055835723877" class="er attributeBoxEven"></rect><text transform="translate(53.27055835723877,56.000000953674316)" style="dominant-baseline: middle; font-size: 10.2px;" y="0" x="0" id="text-entity-MealPlan-c083b3ea-8ee8-518d-a401-4f10487e2959-attr-2-name" class="er entityLabel">course</text></g><rect height="14" width="58.36393356323242" y="279" x="637.13401222229" class="er relationshipLabelBox"></rect><text style="text-anchor: middle; dominant-baseline: middle; font-size: 12px;" y="286" x="666.3159790039062" id="rel92" class="er relationshipLabel">belongs_to</text><rect height="14" width="62.427085876464844" y="467" x="635.1024360656738" class="er relationshipLabelBox"></rect><text style="text-anchor: middle; dominant-baseline: middle; font-size: 12px;" y="474" x="666.3159790039062" id="rel93" class="er relationshipLabel">member_of</text><rect height="14.000041007995605" width="17.71875" y="672.0088906288147" x="65.42704010009766" class="er relationshipLabelBox"></rect><text style="text-anchor: middle; dominant-baseline: middle; font-size: 12px;" y="679.0089111328125" x="74.28641510009766" id="rel94" class="er relationshipLabel">has</text><rect height="14" width="36.88541793823242" y="627.5315551757812" x="576.5270175933838" class="er relationshipLabelBox"></rect><text style="text-anchor: middle; dominant-baseline: middle; font-size: 12px;" y="634.5315551757812" x="594.9697265625" id="rel95" class="er relationshipLabel">assigns</text><rect height="14" width="39.625" y="802.5755004882812" x="723.2633056640625" class="er relationshipLabelBox"></rect><text style="text-anchor: middle; dominant-baseline: middle; font-size: 12px;" y="809.5755004882812" x="743.0758056640625" id="rel96" class="er relationshipLabel">creates</text><rect height="14" width="17.71875" y="628.7733154296875" x="838.0050659179688" class="er relationshipLabelBox"></rect><text style="text-anchor: middle; dominant-baseline: middle; font-size: 12px;" y="635.7733154296875" x="846.8644409179688" id="rel97" class="er relationshipLabel">has</text><rect height="14" width="61.19791793823242" y="947.1430053710938" x="172.37075233459473" class="er relationshipLabelBox"></rect><text style="text-anchor: middle; dominant-baseline: middle; font-size: 12px;" y="954.1430053710938" x="202.96971130371094" id="rel98" class="er relationshipLabel">categorizes</text><rect height="14" width="50.29166793823242" y="907" x="348.28516578674316" class="er relationshipLabelBox"></rect><text style="text-anchor: middle; dominant-baseline: middle; font-size: 12px;" y="914" x="373.4309997558594" id="rel99" class="er relationshipLabel">measures</text><rect height="14" width="59.755210876464844" y="1133.6749267578125" x="179.34326553344727" class="er relationshipLabelBox"></rect><text style="text-anchor: middle; dominant-baseline: middle; font-size: 12px;" y="1140.6749267578125" x="209.2208709716797" id="rel100" class="er relationshipLabel">consists_of</text><rect height="14" width="41.02604293823242" y="1149.73779296875" x="562.8249912261963" class="er relationshipLabelBox"></rect><text style="text-anchor: middle; dominant-baseline: middle; font-size: 12px;" y="1156.73779296875" x="583.3380126953125" id="rel101" class="er relationshipLabel">used_in</text><rect height="14" width="59.755210876464844" y="1166.651123046875" x="783.9687690734863" class="er relationshipLabelBox"></rect><text style="text-anchor: middle; dominant-baseline: middle; font-size: 12px;" y="1173.651123046875" x="813.8463745117188" id="rel102" class="er relationshipLabel">consists_of</text><rect height="14" width="44.10416793823242" y="928.1799926757812" x="865.5506992340088" class="er relationshipLabelBox"></rect><text style="text-anchor: middle; dominant-baseline: middle; font-size: 12px;" y="935.1799926757812" x="887.602783203125" id="rel103" class="er relationshipLabel">includes</text><rect height="14" width="43.114585876464844" y="977.5687866210938" x="501.3080024719238" class="er relationshipLabelBox"></rect><text style="text-anchor: middle; dominant-baseline: middle; font-size: 12px;" y="984.5687866210938" x="522.8652954101562" id="rel104" class="er relationshipLabel">involves</text></g><g id="svg-pan-zoom-controls" transform="translate(662 420) scale(0.75)" class="svg-pan-zoom-control"><g id="svg-pan-zoom-zoom-in" transform="translate(30.5 5) scale(0.015)" class="svg-pan-zoom-control"><rect x="0" y="0" width="1500" height="1400" class="svg-pan-zoom-control-background"></rect><path d="M1280 576v128q0 26 -19 45t-45 19h-320v320q0 26 -19 45t-45 19h-128q-26 0 -45 -19t-19 -45v-320h-320q-26 0 -45 -19t-19 -45v-128q0 -26 19 -45t45 -19h320v-320q0 -26 19 -45t45 -19h128q26 0 45 19t19 45v320h320q26 0 45 19t19 45zM1536 1120v-960 q0 -119 -84.5 -203.5t-203.5 -84.5h-960q-119 0 -203.5 84.5t-84.5 203.5v960q0 119 84.5 203.5t203.5 84.5h960q119 0 203.5 -84.5t84.5 -203.5z" class="svg-pan-zoom-control-element"></path></g><g id="svg-pan-zoom-reset-pan-zoom" transform="translate(5 35) scale(0.4)" class="svg-pan-zoom-control"><rect x="2" y="2" width="182" height="58" class="svg-pan-zoom-control-background"></rect><path d="M33.051,20.632c-0.742-0.406-1.854-0.609-3.338-0.609h-7.969v9.281h7.769c1.543,0,2.701-0.188,3.473-0.562c1.365-0.656,2.048-1.953,2.048-3.891C35.032,22.757,34.372,21.351,33.051,20.632z" class="svg-pan-zoom-control-element"></path><path d="M170.231,0.5H15.847C7.102,0.5,0.5,5.708,0.5,11.84v38.861C0.5,56.833,7.102,61.5,15.847,61.5h154.384c8.745,0,15.269-4.667,15.269-10.798V11.84C185.5,5.708,178.976,0.5,170.231,0.5z M42.837,48.569h-7.969c-0.219-0.766-0.375-1.383-0.469-1.852c-0.188-0.969-0.289-1.961-0.305-2.977l-0.047-3.211c-0.03-2.203-0.41-3.672-1.142-4.406c-0.732-0.734-2.103-1.102-4.113-1.102h-7.05v13.547h-7.055V14.022h16.524c2.361,0.047,4.178,0.344,5.45,0.891c1.272,0.547,2.351,1.352,3.234,2.414c0.731,0.875,1.31,1.844,1.737,2.906s0.64,2.273,0.64,3.633c0,1.641-0.414,3.254-1.242,4.84s-2.195,2.707-4.102,3.363c1.594,0.641,2.723,1.551,3.387,2.73s0.996,2.98,0.996,5.402v2.32c0,1.578,0.063,2.648,0.19,3.211c0.19,0.891,0.635,1.547,1.333,1.969V48.569z M75.579,48.569h-26.18V14.022h25.336v6.117H56.454v7.336h16.781v6H56.454v8.883h19.125V48.569z M104.497,46.331c-2.44,2.086-5.887,3.129-10.34,3.129c-4.548,0-8.125-1.027-10.731-3.082s-3.909-4.879-3.909-8.473h6.891c0.224,1.578,0.662,2.758,1.316,3.539c1.196,1.422,3.246,2.133,6.15,2.133c1.739,0,3.151-0.188,4.236-0.562c2.058-0.719,3.087-2.055,3.087-4.008c0-1.141-0.504-2.023-1.512-2.648c-1.008-0.609-2.607-1.148-4.796-1.617l-3.74-0.82c-3.676-0.812-6.201-1.695-7.576-2.648c-2.328-1.594-3.492-4.086-3.492-7.477c0-3.094,1.139-5.664,3.417-7.711s5.623-3.07,10.036-3.07c3.685,0,6.829,0.965,9.431,2.895c2.602,1.93,3.966,4.73,4.093,8.402h-6.938c-0.128-2.078-1.057-3.555-2.787-4.43c-1.154-0.578-2.587-0.867-4.301-0.867c-1.907,0-3.428,0.375-4.565,1.125c-1.138,0.75-1.706,1.797-1.706,3.141c0,1.234,0.561,2.156,1.682,2.766c0.721,0.406,2.25,0.883,4.589,1.43l6.063,1.43c2.657,0.625,4.648,1.461,5.975,2.508c2.059,1.625,3.089,3.977,3.089,7.055C108.157,41.624,106.937,44.245,104.497,46.331z M139.61,48.569h-26.18V14.022h25.336v6.117h-18.281v7.336h16.781v6h-16.781v8.883h19.125V48.569z M170.337,20.14h-10.336v28.43h-7.266V20.14h-10.383v-6.117h27.984V20.14z" class="svg-pan-zoom-control-element"></path></g><g id="svg-pan-zoom-zoom-out" transform="translate(30.5 70) scale(0.015)" class="svg-pan-zoom-control"><rect x="0" y="0" width="1500" height="1400" class="svg-pan-zoom-control-background"></rect><path d="M1280 576v128q0 26 -19 45t-45 19h-896q-26 0 -45 -19t-19 -45v-128q0 -26 19 -45t45 -19h896q26 0 45 19t19 45zM1536 1120v-960q0 -119 -84.5 -203.5t-203.5 -84.5h-960q-119 0 -203.5 84.5t-84.5 203.5v960q0 119 84.5 203.5t203.5 84.5h960q119 0 203.5 -84.5 t84.5 -203.5z" class="svg-pan-zoom-control-element"></path></g></g></svg>